<svg t="1712053410848" class="icon" viewBox="0 0 1024 1024" version="1.1" xmlns="http://www.w3.org/2000/svg" p-id="4569" width="128" height="128"><path d="M421.519577 200.826808c19.504762-24.922751 15.17037-61.40388-9.752381-80.908642-24.922751-19.504762-61.40388-15.17037-80.908642 9.752381-19.504762 24.922751-15.17037 61.40388 9.752381 80.908642 24.922751 19.504762 61.042681 15.17037 80.908642-9.752381zM305.213404 753.822928c-24.922751-19.504762-61.40388-15.17037-80.908642 9.752381-19.504762 24.922751-15.17037 61.40388 9.752381 80.908642 24.922751 19.504762 61.40388 15.17037 80.908642-9.752381 19.865961-24.922751 15.53157-61.40388-9.752381-80.908642zM906.24903 524.100176c-24.922751-19.504762-61.40388-15.17037-80.908642 9.752381-19.504762 24.922751-15.17037 61.40388 9.752381 80.908642 24.922751 19.504762 61.40388 15.17037 80.908642-9.752381 19.504762-25.283951 15.17037-61.40388-9.752381-80.908642z" fill="" p-id="4570"></path><path d="M156.038095 706.867019C122.446561 647.269136 104.747795 579.724868 104.747795 511.097002c0-117.028571 51.2903-227.194356 140.506526-303.046208l24.922751 29.618342c-80.547443 68.266667-126.780952 167.957672-126.780952 273.427866 0 61.765079 15.892769 122.80776 46.594709 176.626455l-33.952734 19.143562zM501.344621 908.055026c-36.842328 0-73.684656-5.05679-108.720988-15.17037l10.47478-37.203527c31.785538 9.029982 65.015873 13.725573 98.246208 13.725573 135.810935 0 258.257496-75.129453 319.661375-196.492416l34.675133 17.698765c-32.507937 64.293474-82.353439 118.834568-143.757319 157.121693-62.848677 39.370723-135.810935 60.320282-210.579189 60.320282zM855.319929 457.278307c-26.006349-173.014462-172.292063-300.879012-347.112522-304.129806l0.722399-38.648325c93.911817 1.805996 184.57284 36.842328 255.006702 99.329806 69.711464 61.765079 115.944974 146.285714 129.670547 237.669136l-38.287126 5.779189zM480.756261 724.926984l-83.798236-323.273368L340.610935 527.35097l-87.04903 4.334392-1.805997-39.009524 63.209877-2.889595L407.071605 285.347443l80.908642 312.437389 84.159436-219.247971 58.514285 161.456084 20.58836-45.149911H736.846561v36.119929h-60.681482l-49.484303 111.249383-55.624691-153.148501z" fill="" p-id="4571"></path><path d="M253.200705 512.1806m-19.504761 0a19.504762 19.504762 0 1 0 39.009523 0 19.504762 19.504762 0 1 0-39.009523 0Z" fill="" p-id="4572"></path><path d="M737.20776 512.541799m-19.504762 0a19.504762 19.504762 0 1 0 39.009524 0 19.504762 19.504762 0 1 0-39.009524 0Z" fill="" p-id="4573"></path></svg>